<?xml version="1.0" standalone="no"?>
<!DOCTYPE svg PUBLIC "-//W3C//DTD SVG 20010904//EN"
 "http://www.w3.org/TR/2001/REC-SVG-20010904/DTD/svg10.dtd">
<svg version="1.0" xmlns="http://www.w3.org/2000/svg"
 width="1024.000000pt" height="1024.000000pt" viewBox="0 0 1024.000000 1024.000000"
 preserveAspectRatio="xMidYMid meet">
<metadata>
Created by potrace 1.14, written by Peter Selinger 2001-2017
</metadata>
<g transform="translate(0.000000,1024.000000) scale(0.100000,-0.100000)"
fill="#000000" stroke="none">
<path d="M1145 8495 c-179 -38 -315 -166 -361 -338 -12 -44 -13 -475 -11
-2687 2 -2467 3 -2638 19 -2685 34 -98 120 -201 210 -252 73 -42 130 -52 373
-68 44 -3 116 -8 160 -11 75 -4 116 -8 225 -19 25 -2 77 -7 115 -10 69 -6 103
-9 180 -20 22 -2 63 -7 90 -10 79 -9 364 -48 445 -60 84 -13 373 -68 460 -86
52 -12 109 -23 125 -26 17 -3 73 -16 125 -30 52 -13 102 -26 110 -28 39 -8
152 -39 215 -58 39 -12 72 -22 75 -22 40 -9 159 -46 205 -65 11 -5 29 -11 40
-14 74 -19 342 -126 480 -191 55 -26 117 -54 139 -61 109 -39 235 11 292 116
19 34 19 109 19 2845 0 1664 -4 2818 -9 2830 -5 11 -9 23 -8 26 3 15 -70 78
-125 109 -32 18 -74 42 -93 53 -52 31 -291 150 -325 163 -16 6 -70 28 -120 49
-153 63 -490 180 -542 188 -10 1 -23 6 -29 9 -6 4 -21 9 -35 12 -13 3 -82 20
-154 39 -138 37 -340 82 -520 117 -60 12 -119 24 -130 26 -52 10 -73 14 -105
18 -19 3 -93 14 -165 25 -71 11 -186 27 -255 35 -69 8 -147 18 -175 21 -27 4
-72 8 -100 10 -27 3 -68 7 -90 10 -39 5 -59 7 -210 20 -141 12 -290 22 -425
30 -30 2 -82 -3 -115 -10z"/>
<path d="M8928 8505 c-3 -3 -135 -13 -258 -21 -62 -3 -167 -13 -220 -19 -19
-2 -66 -7 -105 -10 -94 -8 -153 -14 -195 -20 -40 -5 -81 -10 -200 -25 -47 -6
-96 -12 -110 -14 -14 -3 -74 -12 -135 -21 -60 -9 -123 -18 -140 -21 -66 -10
-357 -66 -465 -90 -63 -14 -122 -27 -130 -29 -19 -4 -180 -45 -200 -50 -57
-16 -168 -46 -180 -50 -8 -2 -34 -10 -58 -19 -23 -8 -43 -15 -45 -14 -5 3
-340 -113 -382 -132 -11 -5 -60 -26 -110 -46 -91 -36 -340 -157 -405 -196
-167 -100 -178 -108 -202 -156 l-23 -47 -1 -2795 c0 -1801 3 -2808 9 -2833 13
-51 98 -139 149 -154 67 -20 120 -9 250 52 129 60 392 169 443 184 16 5 75 25
130 44 94 33 216 71 260 82 11 3 61 16 110 30 50 14 99 27 110 30 11 3 38 9
60 14 22 5 60 15 85 21 25 7 54 13 65 16 11 2 70 14 130 28 110 24 222 46 261
51 11 2 46 8 77 15 32 6 71 13 88 15 62 8 157 22 199 30 14 2 43 7 65 9 22 3
78 10 125 16 177 22 237 30 280 35 41 5 118 12 215 20 39 3 90 8 115 10 43 4
105 9 275 20 92 7 213 16 235 19 119 15 241 104 313 227 61 105 57 -81 57
2772 0 1880 -3 2621 -11 2659 -27 130 -122 249 -248 313 -39 19 -73 35 -76 35
-3 0 -6 0 -7 1 -21 7 -195 19 -200 14z"/>
</g>
</svg>
